<mxfile host="app.diagrams.net" modified="2022-10-03T23:06:43.835Z" agent="5.0 (Windows NT 10.0; Win64; x64) AppleWebKit/537.36 (KHTML, like Gecko) Chrome/106.0.0.0 Safari/537.36" etag="yywzP8OHacVW9F8tuYkO" version="20.4.0" type="github">
  <diagram name="Page-1" id="efa7a0a1-bf9b-a30e-e6df-94a7791c09e9">
    <mxGraphModel dx="2062" dy="1923" grid="1" gridSize="10" guides="1" tooltips="1" connect="1" arrows="1" fold="1" page="1" pageScale="1" pageWidth="826" pageHeight="1169" background="none" math="0" shadow="0">
      <root>
        <mxCell id="0" />
        <mxCell id="1" parent="0" />
        <mxCell id="23" value="&lt;h1 style=&quot;margin: 0px; margin-top: 4px; text-align: center; text-decoration: underline;&quot;&gt;&lt;b&gt;&lt;font style=&quot;font-size: 34px; line-height: 3.4;&quot;&gt;login / register&lt;/font&gt;&lt;/b&gt;&lt;/h1&gt;" style="verticalAlign=top;align=left;overflow=fill;fontSize=12;fontFamily=Helvetica;html=1;strokeColor=#003366;shadow=1;fillColor=#D4E1F5;fontColor=#003366" parent="1" vertex="1">
          <mxGeometry x="810" y="100" width="250" height="170" as="geometry" />
        </mxCell>
        <mxCell id="113" value="" style="endArrow=block;endFill=1;edgeStyle=orthogonalEdgeStyle;align=left;verticalAlign=top;entryX=1;entryY=0.75;exitX=0;exitY=0.75;rounded=0" parent="1" target="29" edge="1">
          <mxGeometry x="-1" relative="1" as="geometry">
            <mxPoint x="1410" y="664.46" as="sourcePoint" />
            <mxPoint x="1070" y="840" as="targetPoint" />
            <Array as="points">
              <mxPoint x="910" y="808" />
              <mxPoint x="910" y="682" />
            </Array>
          </mxGeometry>
        </mxCell>
        <mxCell id="Vavnz0k1IiKGktxs_Jg3-192" style="edgeStyle=orthogonalEdgeStyle;rounded=0;orthogonalLoop=1;jettySize=auto;html=1;fontSize=34;" edge="1" parent="1" source="Vavnz0k1IiKGktxs_Jg3-191" target="23">
          <mxGeometry relative="1" as="geometry" />
        </mxCell>
        <mxCell id="Vavnz0k1IiKGktxs_Jg3-195" style="edgeStyle=orthogonalEdgeStyle;rounded=0;orthogonalLoop=1;jettySize=auto;html=1;fontSize=34;" edge="1" parent="1" source="Vavnz0k1IiKGktxs_Jg3-191" target="Vavnz0k1IiKGktxs_Jg3-194">
          <mxGeometry relative="1" as="geometry" />
        </mxCell>
        <mxCell id="Vavnz0k1IiKGktxs_Jg3-191" value="&lt;h1 style=&quot;margin: 0px; margin-top: 4px; text-align: center; text-decoration: underline;&quot;&gt;&lt;span style=&quot;font-size: 34px;&quot;&gt;Note Operations&lt;/span&gt;&lt;/h1&gt;" style="verticalAlign=top;align=left;overflow=fill;fontSize=12;fontFamily=Helvetica;html=1;strokeColor=#003366;shadow=1;fillColor=#D4E1F5;fontColor=#003366" vertex="1" parent="1">
          <mxGeometry x="250" y="310" width="300" height="55" as="geometry" />
        </mxCell>
        <mxCell id="Vavnz0k1IiKGktxs_Jg3-194" value="&lt;h1 style=&quot;margin: 0px; margin-top: 4px; text-align: center; text-decoration: underline;&quot;&gt;&lt;span style=&quot;font-size: 34px;&quot;&gt;CRUD OP.&lt;/span&gt;&lt;/h1&gt;" style="verticalAlign=top;align=left;overflow=fill;fontSize=12;fontFamily=Helvetica;html=1;strokeColor=#003366;shadow=1;fillColor=#D4E1F5;fontColor=#003366" vertex="1" parent="1">
          <mxGeometry x="230" y="420" width="300" height="55" as="geometry" />
        </mxCell>
        <mxCell id="Vavnz0k1IiKGktxs_Jg3-196" style="edgeStyle=orthogonalEdgeStyle;rounded=0;orthogonalLoop=1;jettySize=auto;html=1;exitX=0.5;exitY=1;exitDx=0;exitDy=0;fontSize=34;" edge="1" parent="1" source="23" target="23">
          <mxGeometry relative="1" as="geometry" />
        </mxCell>
        <mxCell id="Vavnz0k1IiKGktxs_Jg3-198" style="edgeStyle=orthogonalEdgeStyle;rounded=0;orthogonalLoop=1;jettySize=auto;html=1;fontSize=34;" edge="1" parent="1" source="Vavnz0k1IiKGktxs_Jg3-197" target="23">
          <mxGeometry relative="1" as="geometry" />
        </mxCell>
        <mxCell id="Vavnz0k1IiKGktxs_Jg3-200" style="edgeStyle=orthogonalEdgeStyle;rounded=0;orthogonalLoop=1;jettySize=auto;html=1;fontSize=34;" edge="1" parent="1" source="Vavnz0k1IiKGktxs_Jg3-197" target="Vavnz0k1IiKGktxs_Jg3-199">
          <mxGeometry relative="1" as="geometry" />
        </mxCell>
        <mxCell id="Vavnz0k1IiKGktxs_Jg3-197" value="&lt;h1 style=&quot;margin: 0px; margin-top: 4px; text-align: center; text-decoration: underline;&quot;&gt;&lt;span style=&quot;font-size: 34px;&quot;&gt;User Op.&lt;/span&gt;&lt;/h1&gt;" style="verticalAlign=top;align=left;overflow=fill;fontSize=12;fontFamily=Helvetica;html=1;strokeColor=#003366;shadow=1;fillColor=#D4E1F5;fontColor=#003366" vertex="1" parent="1">
          <mxGeometry x="1100" y="190" width="300" height="55" as="geometry" />
        </mxCell>
        <mxCell id="Vavnz0k1IiKGktxs_Jg3-199" value="&lt;h1 style=&quot;margin: 0px; margin-top: 4px; text-align: center; text-decoration: underline;&quot;&gt;&lt;span style=&quot;font-size: 34px;&quot;&gt;Crud OP (Proggress)&lt;/span&gt;&lt;/h1&gt;" style="verticalAlign=top;align=left;overflow=fill;fontSize=12;fontFamily=Helvetica;html=1;strokeColor=#003366;shadow=1;fillColor=#D4E1F5;fontColor=#003366" vertex="1" parent="1">
          <mxGeometry x="1350" y="30" width="360" height="85" as="geometry" />
        </mxCell>
        <mxCell id="Vavnz0k1IiKGktxs_Jg3-201" value="" style="html=1;shadow=0;dashed=0;shape=mxgraph.basic.arc;startAngle=0.25;endAngle=1;strokeWidth=4;strokeColor=#34A64D;fontSize=34;" vertex="1" parent="1">
          <mxGeometry x="1460" y="-5" width="140" height="120" as="geometry" />
        </mxCell>
        <mxCell id="Vavnz0k1IiKGktxs_Jg3-208" style="edgeStyle=orthogonalEdgeStyle;rounded=0;orthogonalLoop=1;jettySize=auto;html=1;fontSize=34;" edge="1" parent="1" source="Vavnz0k1IiKGktxs_Jg3-207" target="23">
          <mxGeometry relative="1" as="geometry" />
        </mxCell>
        <mxCell id="Vavnz0k1IiKGktxs_Jg3-210" style="edgeStyle=orthogonalEdgeStyle;rounded=0;orthogonalLoop=1;jettySize=auto;html=1;fontSize=34;" edge="1" parent="1" source="Vavnz0k1IiKGktxs_Jg3-207" target="Vavnz0k1IiKGktxs_Jg3-191">
          <mxGeometry relative="1" as="geometry" />
        </mxCell>
        <mxCell id="Vavnz0k1IiKGktxs_Jg3-207" value="" style="shape=datastore;whiteSpace=wrap;html=1;fontSize=34;fillColor=#d5e8d4;strokeColor=#82b366;" vertex="1" parent="1">
          <mxGeometry x="250" y="-190" width="180" height="210" as="geometry" />
        </mxCell>
      </root>
    </mxGraphModel>
  </diagram>
</mxfile>
